gui_paths_subject3_walking1_full_v3
version=1
nRows=14
nColumns=56
inDegrees=no
endheader
time	pelvis_tilt	pelvis_list	pelvis_rotation	pelvis_tx	pelvis_ty	pelvis_tz	hip_flexion_r	hip_adduction_r	hip_rotation_r	knee_angle_r	ankle_angle_r	subtalar_angle_r	mtp_angle_r	hip_flexion_l	hip_adduction_l	hip_rotation_l	knee_angle_l	ankle_angle_l	subtalar_angle_l	mtp_angle_l	lumbar_extension	lumbar_bending	lumbar_rotation	arm_flex_r	arm_add_r	arm_rot_r	elbow_flex_r	pro_sup_r	wrist_flex_r	wrist_dev_r	arm_flex_l	arm_add_l	arm_rot_l	elbow_flex_l	pro_sup_l	wrist_flex_l	wrist_dev_l	knee_angle_r_beta	knee_angle_l_beta	/forceset/M0_r/activation	/forceset/M1_r/activation	/forceset/M2_r/activation	/forceset/M3_r/activation	/forceset/M4_r/activation	/forceset/M5_r/activation	/forceset/M6_r/activation	/forceset/M7_r/activation	/forceset/M0_l/activation	/forceset/M1_l/activation	/forceset/M2_l/activation	/forceset/M3_l/activation	/forceset/M4_l/activation	/forceset/M5_l/activation	/forceset/M6_l/activation	/forceset/M7_l/activation
0.96000000	-0.00758792	0.12948023	-0.08450923	1.08443770	0.91184724	-0.23168730	0.57704917	-0.16326209	0.02640144	0.72771834	0.18844869	0.01861229	-0.00040485	-0.11008733	0.19954030	-0.00562141	0.12767163	0.22842285	0.02034670	-0.00088755	-0.06424075	-0.10339519	-0.21607130	-0.22282053	-0.22345959	0.14471313	0.37440018	1.35292132	-0.00009351	0.00046255	-0.03624199	-0.25460744	-0.36155043	0.94375964	1.48157283	-0.00013359	0.00030875	0.72771834	0.12767163	0.31557144	0.06272134	0.00000000	0.00000000	0.11134289	0.00000000	0.01440120	0.00000000	0.32493723	0.00000000	0.00000000	0.11109617	0.28861293	0.00000000	0.93535453	1.00000000
0.97000000	-0.00868699	0.12029104	-0.08013633	1.09554537	0.91123520	-0.23082660	0.57294387	-0.15425993	0.00384770	0.65008654	0.18763084	0.01861229	-0.00040485	-0.12519932	0.18851706	-0.00243312	0.12568145	0.23616640	0.02034670	-0.00088755	-0.06593706	-0.09186672	-0.22702064	-0.22204310	-0.22558204	0.14290577	0.36000317	1.35391891	-0.00009351	0.00046255	-0.02896874	-0.25816706	-0.36676205	0.96109115	1.48157415	-0.00013359	0.00030875	0.65008654	0.12568145	0.40924112	0.09765686	0.00000000	0.00000000	0.15929122	0.00000000	0.02862597	0.00000000	0.32311984	0.00000000	0.00000000	0.11465212	0.29025761	0.00000000	0.96458429	1.00000000
0.98000000	-0.00825357	0.10985595	-0.07573251	1.10684340	0.91063071	-0.22984184	0.56364089	-0.14315331	-0.01875250	0.56993614	0.18468158	0.01861229	-0.00040485	-0.14215442	0.17574510	0.00013848	0.12381611	0.24369288	0.02034670	-0.00088755	-0.06922798	-0.07926667	-0.23717674	-0.22094822	-0.22742004	0.14027298	0.34626999	1.35447136	-0.00009351	0.00046255	-0.02164878	-0.26159509	-0.37078666	0.97717267	1.48157588	-0.00013359	0.00030875	0.56993614	0.12381611	0.50707934	0.15952711	0.00000000	0.00000000	0.21038102	0.00000000	0.04596917	0.00000000	0.31674626	0.00000000	0.00000000	0.11770879	0.29013668	0.00000000	0.99428003	1.00000000
0.99000000	-0.00631759	0.09825737	-0.07125015	1.11836755	0.91004133	-0.22872042	0.54951408	-0.12967161	-0.03939341	0.48849556	0.17970745	0.01861229	-0.00040485	-0.16073771	0.16127612	0.00210038	0.12242816	0.25100329	0.02034670	-0.00088755	-0.07394865	-0.06572042	-0.24636981	-0.21982759	-0.22886475	0.13624670	0.33353848	1.35457096	-0.00009351	0.00046255	-0.01437112	-0.26493553	-0.37337291	0.99204607	1.48157751	-0.00013359	0.00030875	0.48849556	0.12242816	0.59684915	0.23769618	0.00000000	0.00000000	0.25823869	0.00000000	0.06444225	0.00000000	0.30745899	0.00000000	0.00000000	0.13507512	0.27258661	0.00000000	1.00000000	0.97418215
1.00000000	-0.00260984	0.08555444	-0.06654165	1.13016010	0.90950419	-0.22746919	0.53058305	-0.11383377	-0.05611882	0.40701379	0.17279264	0.01861229	-0.00040485	-0.18113487	0.14516616	0.00346734	0.12176107	0.25811088	0.02034670	-0.00088755	-0.08026628	-0.05130192	-0.25450717	-0.21896540	-0.22984943	0.13032696	0.32216140	1.35420016	-0.00009351	0.00046255	-0.00718663	-0.26820929	-0.37425746	1.00580606	1.48157910	-0.00013359	0.00030875	0.40701379	0.12176107	0.66567916	0.31044733	0.00000000	0.00000000	0.29573671	0.00000000	0.08089280	0.00000000	0.29288131	0.00000000	0.00000000	0.15514076	0.24982977	0.00000000	1.00000000	0.94010795
1.01000000	0.00321565	0.07191533	-0.06139685	1.14225972	0.90906384	-0.22611920	0.50690624	-0.09616691	-0.06741778	0.32713445	0.16404131	0.01861229	-0.00040485	-0.20364829	0.12762358	0.00427559	0.12200097	0.26503674	0.02034670	-0.00088755	-0.08844841	-0.03616794	-0.26171429	-0.21850474	-0.23040118	0.12259825	0.31229580	1.35351405	-0.00009351	0.00046255	-0.00019857	-0.27138850	-0.37337149	1.01860861	1.48158070	-0.00013359	0.00030875	0.32713445	0.12200097	0.70527071	0.35696408	0.00000000	0.00000000	0.31781749	0.00000000	0.09288895	0.00000000	0.27296213	0.00000000	0.00000000	0.17433201	0.22568131	0.00000000	1.00000000	0.90736615
1.02000000	0.01080187	0.05805418	-0.05567641	1.15467929	0.90870096	-0.22472053	0.47986384	-0.07800456	-0.07253681	0.25152766	0.15380161	0.01861229	-0.00040485	-0.22766365	0.10946208	0.00446264	0.12346879	0.27173876	0.02034670	-0.00088755	-0.09794561	-0.02099763	-0.26812195	-0.21857266	-0.23057307	0.11348461	0.30394532	1.35266444	-0.00009351	0.00046255	0.00640347	-0.27443597	-0.37073940	1.03051528	1.48158231	-0.00013359	0.00030875	0.25152766	0.12346879	0.70996861	0.36367427	0.00000000	0.00000000	0.32012557	0.00000000	0.09702245	0.00000000	0.24838047	0.00000000	0.00000000	0.19232825	0.20073811	0.00000000	1.00000000	0.87707564
1.03000000	0.01986564	0.04443858	-0.04928780	1.16741112	0.90840658	-0.22333014	0.45090967	-0.06053379	-0.07255597	0.18332002	0.14274976	0.01861229	-0.00040485	-0.25266432	0.09122814	0.00367662	0.12641722	0.27819548	0.02034670	-0.00088755	-0.10835405	-0.00613205	-0.27388363	-0.21911890	-0.23052363	0.10366391	0.29700016	1.35170385	-0.00009351	0.00046255	0.01248863	-0.27721223	-0.36651306	1.04150120	1.48158390	-0.00013359	0.00030875	0.18332002	0.12641722	0.69019587	0.33138021	0.00000000	0.00000000	0.30925237	0.00000000	0.09864448	0.00000000	0.22007981	0.00000000	0.00000000	0.20866421	0.17572927	0.00000000	1.00000000	0.85055664
1.04000000	0.02960164	0.03157044	-0.04246269	1.18040111	0.90812743	-0.22198379	0.42261206	-0.04475880	-0.07075849	0.12658151	0.13258669	0.01861229	-0.00040485	-0.27750440	0.07357895	0.00151459	0.13111558	0.28428286	0.02034670	-0.00088755	-0.11881564	0.00805836	-0.27913604	-0.21980479	-0.23048504	0.09437725	0.29106854	1.35060658	-0.00009351	0.00046255	0.01782658	-0.27951031	-0.36117343	1.05148489	1.48158549	-0.00013359	0.00030875	0.12658151	0.13111558	0.61758259	0.25962946	0.00000002	0.00000001	0.26439250	0.00458015	0.07610430	0.00000003	0.18902442	0.00000000	0.00000000	0.22273069	0.15136968	0.00000000	1.00000000	0.82932563
1.05000000	0.03734239	0.02102458	-0.03613049	1.19352908	0.90764964	-0.22066473	0.40064336	-0.03227248	-0.07111618	0.08675653	0.12616538	0.01861229	-0.00040485	-0.29877665	0.05851801	-0.00182313	0.13801809	0.28939493	0.02034670	-0.00088755	-0.12647635	0.01994425	-0.28369631	-0.22022504	-0.23056213	0.08715516	0.28547441	1.34939896	-0.00009351	0.00046255	0.02192270	-0.28121130	-0.35545276	1.06020254	1.48158708	-0.00013359	0.00030875	0.08675653	0.13801809	0.63195430	0.23048007	0.00000000	0.00000000	0.28374746	0.00000000	0.11959539	0.00000000	0.15586065	0.00000000	0.00000000	0.23378437	0.12817102	0.00000000	1.00000000	0.81507052
1.06000000	0.04201252	0.01295583	-0.03097673	1.20674507	0.90691338	-0.21933342	0.38730358	-0.02295733	-0.07638407	0.06609464	0.12446280	0.01861229	-0.00040485	-0.31524503	0.04644424	-0.00627902	0.14711724	0.29300551	0.02034670	-0.00088755	-0.13026330	0.02935284	-0.28728413	-0.22008713	-0.23086510	0.08245313	0.27994394	1.34819490	-0.00009351	0.00046255	0.02455674	-0.28211462	-0.34981954	1.06740466	1.48158866	-0.00013359	0.00030875	0.06609464	0.14711724	0.45100042	0.08397178	0.03882103	0.00144332	0.13133236	0.32288805	0.00000045	0.14716361	0.12056520	0.00000000	0.00000000	0.24094285	0.10629093	0.00000000	1.00000000	0.80951355
1.07000000	0.04654935	0.00456565	-0.02660796	1.22014569	0.90624190	-0.21798169	0.37744342	-0.01382826	-0.08787686	0.06126893	0.12503604	0.01861229	-0.00040485	-0.33083809	0.03424260	-0.01272602	0.15760177	0.29512999	0.02034670	-0.00088755	-0.13351762	0.03933008	-0.28983688	-0.21928615	-0.23165705	0.07919240	0.27499657	1.34702592	-0.00009351	0.00046255	0.02612891	-0.28181523	-0.34421829	1.07313017	1.48159024	-0.00013359	0.00030875	0.06126893	0.15760177	0.47805400	0.00002118	0.00000120	0.00051429	0.17279234	0.32370456	0.02269187	0.00000251	0.08204643	0.00000000	0.00000000	0.24313794	0.08542167	0.00000000	1.00000000	0.81425365
1.08000000	0.05298749	-0.00589887	-0.02262007	1.23380094	0.90584195	-0.21661752	0.36731903	-0.00312684	-0.10600326	0.06875237	0.12513774	0.01861229	-0.00040485	-0.34830480	0.01989445	-0.02156376	0.16884650	0.29542359	0.02034670	-0.00088755	-0.13848440	0.05177612	-0.29123077	-0.21798362	-0.23303719	0.07625952	0.27117910	1.34587662	-0.00009351	0.00046255	0.02694357	-0.28006765	-0.33849398	1.07742970	1.48159182	-0.00013359	0.00030875	0.06875237	0.16884650	0.46544643	0.12494844	0.00366823	0.02431239	0.13717824	0.30073825	0.00000084	0.05745435	0.03791177	0.00000000	0.00000000	0.23903198	0.06485435	0.00000000	1.00000000	0.83046864
1.09000000	0.05997105	-0.01746244	-0.01919460	1.24769273	0.90561541	-0.21522065	0.35842963	0.00813185	-0.12962827	0.08650468	0.12276192	0.01861229	-0.00040485	-0.36597862	0.00444175	-0.03207487	0.18106895	0.29308165	0.02034670	-0.00088755	-0.14354153	0.06554866	-0.29136985	-0.21647583	-0.23481826	0.07336118	0.26855961	1.34481202	-0.00009351	0.00046255	0.02668984	-0.27696332	-0.33275802	1.08019780	1.48159340	-0.00013359	0.00030875	0.08650468	0.18106895	0.48634775	0.17429634	0.00959381	0.03297177	0.15237994	0.28071519	0.00000274	0.02417674	0.00000000	0.00000000	0.00000000	0.22919148	0.04738484	0.00000000	1.00000000	0.86066350
